<svg id="e7y63huy39lx1" xmlns="http://www.w3.org/2000/svg" xmlns:xlink="http://www.w3.org/1999/xlink" viewBox="0 0 1150.230000 541" shape-rendering="geometricPrecision" text-rendering="geometricPrecision"><style><![CDATA[#e7y63huy39lx4_to {animation: e7y63huy39lx4_to__to 5000ms linear infinite normal forwards}@keyframes e7y63huy39lx4_to__to { 0% {transform: translate(0px,0px)} 14% {transform: translate(-0.009911px,45.002256px)} 66% {transform: translate(-0.009911px,-349.997744px)} 100% {transform: translate(-0.009911px,0.002256px)} }]]></style><defs><radialGradient id="e7y63huy39lx5-fill" cx="44.200000" cy="16.830000" r="286.920000" spreadMethod="pad" gradientUnits="userSpaceOnUse"><stop id="e7y63huy39lx5-fill-0" offset="16%" stop-color="rgb(248,216,231)"/><stop id="e7y63huy39lx5-fill-1" offset="52%" stop-color="rgb(236,6,119)"/><stop id="e7y63huy39lx5-fill-2" offset="100%" stop-color="rgb(236,9,114)"/></radialGradient><radialGradient id="e7y63huy39lx6-fill" cx="44.200000" cy="16.830000" r="286.920000" spreadMethod="pad" gradientUnits="userSpaceOnUse"><stop id="e7y63huy39lx6-fill-0" offset="16%" stop-color="rgb(248,216,231)"/><stop id="e7y63huy39lx6-fill-1" offset="52%" stop-color="rgb(236,6,119)"/><stop id="e7y63huy39lx6-fill-2" offset="100%" stop-color="rgb(236,9,114)"/></radialGradient><radialGradient id="e7y63huy39lx7-fill" cx="44.200000" cy="16.830000" r="286.920000" spreadMethod="pad" gradientUnits="userSpaceOnUse"><stop id="e7y63huy39lx7-fill-0" offset="16%" stop-color="rgb(248,216,231)"/><stop id="e7y63huy39lx7-fill-1" offset="52%" stop-color="rgb(236,6,119)"/><stop id="e7y63huy39lx7-fill-2" offset="100%" stop-color="rgb(236,9,114)"/></radialGradient><radialGradient id="e7y63huy39lx8-fill" cx="44.200000" cy="16.830000" r="286.920000" spreadMethod="pad" gradientUnits="userSpaceOnUse"><stop id="e7y63huy39lx8-fill-0" offset="16%" stop-color="rgb(248,216,231)"/><stop id="e7y63huy39lx8-fill-1" offset="52%" stop-color="rgb(236,6,119)"/><stop id="e7y63huy39lx8-fill-2" offset="100%" stop-color="rgb(236,9,114)"/></radialGradient><radialGradient id="e7y63huy39lx9-fill" cx="44.200000" cy="16.830000" r="286.920000" spreadMethod="pad" gradientUnits="userSpaceOnUse"><stop id="e7y63huy39lx9-fill-0" offset="16%" stop-color="rgb(248,216,231)"/><stop id="e7y63huy39lx9-fill-1" offset="52%" stop-color="rgb(236,6,119)"/><stop id="e7y63huy39lx9-fill-2" offset="100%" stop-color="rgb(236,9,114)"/></radialGradient><radialGradient id="e7y63huy39lx10-fill" cx="-120.110002" cy="69.029951" r="286.920000" spreadMethod="pad" gradientUnits="userSpaceOnUse"><stop id="e7y63huy39lx10-fill-0" offset="16%" stop-color="rgb(248,216,231)"/><stop id="e7y63huy39lx10-fill-1" offset="52%" stop-color="rgb(236,6,119)"/><stop id="e7y63huy39lx10-fill-2" offset="100%" stop-color="rgb(236,9,114)"/></radialGradient><radialGradient id="e7y63huy39lx13-fill" cx="0.000003" cy="0.000049" r="0" spreadMethod="pad" gradientUnits="userSpaceOnUse"><stop id="e7y63huy39lx13-fill-0" offset="16%" stop-color="rgb(248,216,231)"/><stop id="e7y63huy39lx13-fill-1" offset="52%" stop-color="rgb(236,6,119)"/><stop id="e7y63huy39lx13-fill-2" offset="100%" stop-color="rgb(236,9,114)"/></radialGradient></defs><g id="e7y63huy39lx2"><g id="e7y63huy39lx3"><g id="e7y63huy39lx4_to" transform="translate(0,0)"><g id="e7y63huy39lx4" transform="translate(0,0)"><path id="e7y63huy39lx5" d="M91.520000,262.600000L91.520000,262.600000C92.165739,262.120460,92.768059,261.585064,93.320000,261C93.920000,260.400000,94.520000,259.900000,95.120000,259.300000C95.220000,259.300000,95.220000,259.200000,95.320000,259.200000C97.120000,257.400000,98.920000,255.700000,100.720000,253.900000C100.775228,253.900000,100.820000,253.855228,100.820000,253.800000L100.920000,253.700000C102.720000,251.900000,104.420000,250.100000,106.220000,248.100000C107.920000,246.300000,109.520000,244.500000,111.120000,242.600000L112.320000,241.100000C113.720000,239.500000,115.020000,237.800000,116.320000,236.200000C116.616662,235.891811,116.884449,235.557077,117.120000,235.200000C118.520000,233.400000,119.820000,231.700000,121.120000,229.900000C122.520000,227.900000,124.020000,225.900000,125.420000,223.800000C126.420000,222.300000,127.420000,220.800000,128.420000,219.200000C128.541840,219.047451,128.642734,218.879294,128.720000,218.700000C129.520000,217.400000,130.420000,216.100000,131.220000,214.800000C132.520000,212.700000,133.720000,210.500000,135.020000,208.300000C137.420000,204.100000,139.620000,199.800000,141.820000,195.500000C143.220000,192.400000,144.720000,189.400000,146.020000,186.300000C147.320000,183.200000,148.720000,180,149.820000,176.800000C150.620000,174.500000,151.520000,172.300000,152.320000,170C153.120000,167.700000,153.920000,165.400000,154.520000,163C155.320000,160.700000,155.920000,158.300000,156.620000,155.900000C157.820000,151.600000,158.820000,147.200000,159.720000,142.800000C159.943654,141.877745,160.110633,140.942663,160.220000,140C160.620000,138.200000,160.920000,136.400000,161.220000,134.500000C161.720000,131.600000,162.220000,128.600000,162.520000,125.600000C162.820000,123.500000,163.020000,121.500000,163.220000,119.400000C163.520000,116.900000,163.720000,114.300000,163.920000,111.700000C164.020000,109.300000,164.220000,106.900000,164.320000,104.500000L164.320000,103.300000C164.420000,102.200000,164.420000,101,164.420000,99.900000L164.420000,99.800000L164.320000,99.800000C163.820000,99.700000,163.320000,99.600000,162.920000,99.500000C160.820000,99,158.620000,98.500000,156.520000,98.100000C154.920000,97.800000,153.420000,97.400000,151.920000,97.200000C150.420000,97,149.120000,96.700000,147.720000,96.500000C145.420000,96.100000,142.920000,95.700000,140.520000,95.400000C139.220000,95.200000,137.920000,95,136.620000,94.900000C134.820000,94.600000,133.120000,94.400000,131.320000,94.200000C128.420000,93.900000,125.520000,93.500000,122.520000,93.400000C120.520000,93.200000,118.620000,93.100000,116.620000,92.900000L111.920000,92.600000L104.520000,92.300000C101.620000,92.200000,98.620000,92.200000,95.520000,92.200000C92.620000,92.200000,89.820000,92.200000,86.820000,92.300000Q83.070000,92.300000,79.320000,92.600000C76.020000,92.700000,72.820000,92.900000,69.520000,93.100000C66.620000,93.300000,63.720000,93.600000,60.820000,93.800000C52.020000,94.600000,43.120000,95.700000,34.020000,97.100000C31.020000,97.600000,28.020000,98,25.020000,98.600000C22.320000,151.600000,62.220000,231.500000,91.520000,262.600000Z" transform="matrix(1 0 0 1 -24.88000000000000 -23.85000000000000)" fill="url(#e7y63huy39lx5-fill)" fill-rule="evenodd" stroke="none" stroke-width="1"/><path id="e7y63huy39lx6" d="M25.120000,96.900000L25.620000,96.800000C52.295825,91.495635,79.422040,88.783013,106.620000,88.700000C110.420000,88.700000,114.220000,88.800000,117.920000,88.900000C121.620000,89,125.420000,89.200000,129.020000,89.400000L129.120000,89.400000C132.320000,89.600000,135.520000,89.900000,138.620000,90.100000C142.720000,90.500000,146.720000,90.900000,150.620000,91.500000C152.520000,91.700000,154.420000,92,156.320000,92.300000C156.545542,92.374644,156.782579,92.408507,157.020000,92.400000C158.820000,92.700000,160.520000,92.900000,162.320000,93.200000L164.420000,93.500000L164.520000,93.500000C164.536570,92.931497,164.503107,92.362639,164.420000,91.800000C164.420000,90.400000,164.420000,89.100000,164.320000,87.700000C164.320000,86.900000,164.220000,86.100000,164.220000,85.400000C164.120000,83.800000,164.020000,82.100000,163.920000,80.400000C163.820000,78.400000,163.720000,76.500000,163.520000,74.500000C162.920000,68.100000,162.120000,61.500000,161.020000,54.800000C160.220000,50.200000,159.420000,45.700000,158.320000,41C157.820000,38.600000,157.220000,36.100000,156.520000,33.600000C156.020000,31.200000,155.320000,28.800000,154.720000,26.400000C152.420000,26,150.120000,25.700000,147.720000,25.400000C85.720000,17.800000,32.220000,37.800000,25.520000,92.200000C25.320000,93.900000,25.220000,95.400000,25.120000,96.900000Z" transform="matrix(1 0 0 1 -24.88000000000000 -23.85000000000000)" fill="url(#e7y63huy39lx6-fill)" fill-rule="evenodd" stroke="none" stroke-width="1"/><path id="e7y63huy39lx7" d="M175,30.900000C175.400000,32.700000,175.700000,34.300000,176,36.100000C176.600000,39.100000,177.200000,42,177.600000,45C180.511359,62.204033,181.584063,79.668993,180.800000,97.100000C180.900000,97.100000,181.100000,97.200000,181.200000,97.200000C183.900000,97.900000,186.700000,98.600000,189.300000,99.300000C189.980080,99.407494,190.649344,99.574810,191.300000,99.800000C194.100000,100.600000,196.800000,101.500000,199.500000,102.400000C199.981450,102.521946,200.450224,102.689365,200.900000,102.900000Q204.350000,104.100000,207.500000,105.300000C211.200000,106.700000,214.900000,108.200000,218.400000,109.800000C220.900000,110.900000,223.200000,112.100000,225.600000,113.200000C226.053361,113.394058,226.488432,113.628327,226.900000,113.900000C228.500000,114.700000,230.200000,115.600000,231.700000,116.500000C232.499045,116.873371,233.268006,117.308001,234,117.800000C235.200000,118.500000,236.300000,119.200000,237.500000,119.900000C239.259083,120.905884,240.961643,122.007540,242.600000,123.200000C244.195174,124.174902,245.731197,125.243440,247.200000,126.400000C247.700000,126.700000,248.200000,127.100000,248.700000,127.400000C249.238179,124.924076,249.638793,122.420240,249.900000,119.900000C255.720000,74.500000,222.920000,43.900000,175,30.900000Z" transform="matrix(1 0 0 1 -24.88000000000000 -23.85000000000000)" fill="url(#e7y63huy39lx7-fill)" fill-rule="evenodd" stroke="none" stroke-width="1"/><path id="e7y63huy39lx8" d="M86.120000,333.200000C85.902597,334.924827,86.381955,336.665144,87.451871,338.035388C88.521788,339.405633,90.093932,340.292677,91.820000,340.500000L128.420000,345C132.004932,345.424152,135.262217,342.880793,135.720000,339.300000C138.520000,316.100000,141.420000,293,144.220000,269.900000C176.320000,250.400000,227.220000,192.800000,244.620000,142.800000C242.520000,140.500000,240.420000,138.400000,238.120000,136.300000C236.791800,135.018685,235.389378,133.816608,233.920000,132.700000C231.020000,130.300000,228.020000,128,224.920000,125.900000C223.320000,124.800000,221.720000,123.700000,220.120000,122.700000C218.520000,121.700000,216.820000,120.600000,215.220000,119.700000C213.420000,118.700000,211.620000,117.700000,209.920000,116.800000L205.120000,114.400000C201.020000,112.400000,196.720000,110.500000,192.320000,108.800000C191.020000,108.300000,189.620000,107.800000,188.320000,107.300000Q184.420000,105.800000,180.520000,104.600000C180.420000,106.600000,180.220000,108.400000,180.020000,110.400000C179.720000,112.900000,179.420000,115.500000,179.120000,118.100000C178.820000,120.700000,178.420000,123.200000,177.920000,125.700000L176.720000,132.600000C176.620000,133.100000,176.520000,133.500000,176.420000,134C175.920000,136.100000,175.520000,138.300000,175.020000,140.400000C174.420000,142.900000,173.820000,145.300000,173.120000,147.800000C172.420000,150.100000,171.820000,152.400000,171.120000,154.700000C169.235033,160.974562,167.032188,167.149203,164.520000,173.200000C163.720000,175.200000,162.920000,177,162.120000,178.900000C161.620000,180.100000,161.120000,181.400000,160.520000,182.600000C159.720000,184.500000,158.720000,186.400000,157.820000,188.200000C155.720000,192.400000,153.520000,196.600000,151.220000,200.600000C148.820000,204.800000,146.320000,208.900000,143.620000,212.800000C142.420000,214.700000,141.220000,216.500000,139.920000,218.300000C138.820000,219.900000,137.720000,221.500000,136.520000,223.100000C136.044555,223.905356,135.509740,224.674153,134.920000,225.400000C133.420000,227.400000,131.920000,229.400000,130.320000,231.300000C129.520000,232.300000,128.720000,233.300000,127.920000,234.200000C126.820000,235.600000,125.620000,237,124.420000,238.400000C123.420000,239.600000,122.420000,240.700000,121.320000,241.800000C119.920000,243.400000,118.520000,245,117.020000,246.500000C112.720000,251.100000,108.220000,255.500000,103.620000,259.700000C101.420000,261.800000,99.120000,263.700000,96.820000,265.700000L96.520000,266L94.220000,268C91.420000,289.500000,88.720000,311.300000,86.120000,333.200000ZM116.620000,305.900000L118.920000,287L137.620000,289.300000L135.320000,308.700000C134.547776,308.270619,133.698041,307.998703,132.820000,307.900000ZM93.720000,303.600000L96,284.100000L114.800000,286.400000L112.500000,305.300000L96.200000,303.300000C95.364444,303.302643,94.532085,303.403332,93.720000,303.600000Z" transform="matrix(1 0 0 1 -24.88000000000000 -23.85000000000000)" fill="url(#e7y63huy39lx8-fill)" fill-rule="evenodd" stroke="none" stroke-width="1"/><path id="e7y63huy39lx9" d="M164.220000,103.400000C164.320000,102.300000,164.320000,101.100000,164.320000,100L164.320000,99.900000L164.220000,99.900000L164.220000,100C164.320074,101.131124,164.320074,102.268876,164.220000,103.400000ZM164.320000,91.900000L164.320000,93.600000L164.420000,93.600000C164.436570,93.031497,164.403107,92.462639,164.320000,91.900000ZM91.520000,262.600000L91.520000,262.600000C92.165739,262.120460,92.768059,261.585064,93.320000,261C92.620000,261.600000,92,262.100000,91.520000,262.600000Z" transform="matrix(1 0 0 1 -24.88000000000000 -23.85000000000000)" fill="url(#e7y63huy39lx9-fill)" stroke="none" stroke-width="1"/><rect id="e7y63huy39lx10" width="0.100000" height="0.100000" rx="0" ry="0" transform="matrix(1 0 0 1 139.43000000000001 76.05000000000000)" fill="url(#e7y63huy39lx10-fill)" stroke="none" stroke-width="1"/></g></g></g><g id="e7y63huy39lx11"><g id="e7y63huy39lx12"><path id="e7y63huy39lx13" d="" transform="matrix(1 0 0 1 -24.88000000000000 -23.85000000000000)" fill="url(#e7y63huy39lx13-fill)" fill-rule="evenodd" stroke="none" stroke-width="1"/><g id="e7y63huy39lx14"><rect id="e7y63huy39lx15" width="138.100000" height="27.400000" rx="0" ry="0" transform="matrix(1 0 0 1 625.13000000000000 182.50000000000000)" fill="rgb(35,31,32)" stroke="none" stroke-width="1"/><path id="e7y63huy39lx16" d="M778.620000,400.150000C774.419262,393.440344,769.810595,386.994888,764.820000,380.850000C759.020000,373.650000,752.120000,365.750000,744.020000,357.150000L696.420000,302.550000L788.120000,302.550000L788.120000,247.050000L650.120000,247.050000L650.120000,337.450000L727.620000,418.550000C729.202977,420.174134,730.036598,422.385043,729.920000,424.650000C729.420000,429.150000,727.620000,431.450000,724.520000,431.450000L622.220000,431.450000L622.520000,325.050000L567.620000,325.050000L567.620000,466.850000C567.620000,477.450000,562.620000,486.850000,552.720000,495.150000C543.420000,502.950000,531.020000,507.150000,515.920000,507.550000L516.020000,564.750000L525.320000,564.750000C551.620000,564.750000,574.420000,552.050000,593.520000,530.850000C605.720000,517.350000,613.920000,502.750000,618.420000,486.850000L724.720000,486.850000C735.053966,486.876309,745.333953,485.359590,755.220000,482.350000C763.720000,479.750000,770.220000,476.050000,774.920000,471.350000C784.520000,460.350000,789.320000,445.650000,789.320000,427.450000C789.120000,420.150000,785.620000,411.050000,778.620000,400.150000Z" transform="matrix(1 0 0 1 -24.88000000000000 -23.85000000000000)" fill="rgb(35,31,32)" stroke="none" stroke-width="1"/><path id="e7y63huy39lx17" d="M515.920000,430.450000C515.920000,429.450000,516.020000,428.550000,516.020000,427.550000L515.920000,427.550000L515.920000,385.350000Q515.920000,360,495.120000,342.450000C481.220000,330.850000,465.620000,324.950000,448.220000,324.950000L377,324.950000L377,379.850000L443.300000,379.850000C449.200000,379.850000,453.700000,380.750000,456.800000,382.650000C459.600000,385.750000,461,390.450000,461,396.650000L461,427.850000C460.100000,430.150000,458.600000,431.350000,456.400000,431.350000L377,431.350000L377,486.750000L451.400000,486.750000C461.733966,486.776309,472.013953,485.259590,481.900000,482.250000C490.400000,479.650000,496.900000,475.950000,501.600000,471.250000C510.200000,461.450000,514.900000,448.750000,515.800000,433.250000L515.900000,433.250000Z" transform="matrix(1 0 0 1 -24.88000000000000 -23.85000000000000)" fill="rgb(35,31,32)" stroke="none" stroke-width="1"/><rect id="e7y63huy39lx18" width="54.900000" height="239.700000" rx="0" ry="0" transform="matrix(1 0 0 1 269.52999999999997 223.19999999999999)" fill="rgb(35,31,32)" stroke="none" stroke-width="1"/><circle id="e7y63huy39lx19" r="30.100000" transform="matrix(1 0 0 1 129.93000000000001 405.89999999999998)" fill="rgb(35,31,32)" stroke="none" stroke-width="1"/><path id="e7y63huy39lx20" d="M211.920000,446C211.920000,456.600000,206.920000,466,197.020000,474.300000C187.120000,482.600000,173.820000,486.800000,157.320000,486.800000L124.820000,486.800000L125.020000,543.900000L169.620000,543.900000C195.920000,543.900000,218.720000,531.200000,237.820000,510C256.920000,488.800000,266.520000,464.600000,266.520000,437.400000L266.920000,304.100000L212,304.100000L212,446Z" transform="matrix(1 0 0 1 -24.88000000000000 -23.85000000000000)" fill="rgb(35,31,32)" stroke="none" stroke-width="1"/></g><path id="e7y63huy39lx21" d="M387.820000,486.750000C385.820000,486.850000,383.820000,486.950000,381.720000,486.950000L381.720000,486.750000Z" transform="matrix(1 0 0 1 -24.88000000000000 -23.85000000000000)" fill="rgb(255,255,255)" stroke="none" stroke-width="1"/></g><g id="e7y63huy39lx22"><path id="e7y63huy39lx23" d="M1080.420000,328.250000L1080.420000,328.250000C1081.744447,328.445500,1083.081209,328.545757,1084.420000,328.550000C1085.725747,328.549569,1087.029549,328.449276,1088.320000,328.250000L1140.720000,328.250000C1142.010451,328.449276,1143.314253,328.549569,1144.620000,328.550000C1160.935033,328.577309,1174.295492,315.589568,1174.729682,299.280291C1175.163872,282.971014,1162.513376,269.290802,1146.220000,268.450000L1145.920000,268.450000C1145.520000,268.450000,1145.020000,268.350000,1144.620000,268.350000C1144.184268,268.333499,1143.748082,268.367052,1143.320000,268.450000L1085.820000,268.450000C1085.420000,268.450000,1084.920000,268.350000,1084.520000,268.350000C1084.084268,268.333499,1083.648082,268.367052,1083.220000,268.450000L1080.520000,268.450000L1080.520000,268.650000C1065.598313,270.637561,1054.445543,283.352838,1054.420285,298.406292C1054.395028,313.459747,1065.505067,326.212378,1080.420000,328.250000Z" transform="matrix(1 0 0 1 -24.88000000000000 -23.85000000000000)" fill="rgb(236,9,114)" stroke="none" stroke-width="1"/><path id="e7y63huy39lx24" d="M1120.220000,355.650000L1120.220000,414.350000C1120.220000,420.250000,1119.320000,424.750000,1117.420000,427.850000C1114.320000,430.650000,1109.620000,432.050000,1103.420000,432.050000L1087.720000,432.050000L1087.820000,408.050000L1087.820000,406.850000C1087.576715,372.262832,1065.713310,341.526162,1033.120000,329.950000C1024.267201,326.764459,1014.928487,325.140335,1005.520000,325.150000C973.536852,324.993043,944.359245,343.379994,930.699538,372.299863C917.039831,401.219732,921.372140,435.434404,941.808926,460.036928C962.245711,484.639452,995.085359,495.173693,1026.020000,487.050000C1023.741369,490.071974,1021.124338,492.823212,1018.220000,495.250000C1008.320000,503.550000,995.020000,507.750000,978.520000,507.750000L962.520000,507.750000L962.420000,564.850000L990.720000,564.850000C1017.020000,564.850000,1039.820000,552.150000,1058.920000,530.950000C1071.120000,517.450000,1079.320000,502.750000,1083.820000,486.850000L1114.720000,486.850000Q1140.070000,486.850000,1157.620000,466.050000C1169.220000,452.150000,1175.120000,436.550000,1175.120000,419.150000L1175.120000,355.650000ZM1005.520000,434.750000C990.387398,434.750000,978.120000,422.482602,978.120000,407.350000C978.120000,392.217398,990.387398,379.950000,1005.520000,379.950000C1020.652602,379.950000,1032.920000,392.217398,1032.920000,407.350000C1032.925311,414.618559,1030.040240,421.590942,1024.900591,426.730591C1019.760942,431.870240,1012.788559,434.755311,1005.520000,434.750000Z" transform="matrix(1 0 0 1 -24.88000000000000 -23.85000000000000)" fill="rgb(236,9,114)" stroke="none" stroke-width="1"/><path id="e7y63huy39lx25" d="M840.820000,466.850000C840.820000,477.450000,835.820000,486.850000,825.920000,495.150000C816.620000,502.950000,804.220000,507.150000,789.120000,507.550000L789.220000,564.750000L798.520000,564.750000C824.820000,564.750000,847.620000,552.050000,866.720000,530.850000C885.820000,509.650000,895.420000,485.450000,895.420000,458.250000L895.820000,324.950000L840.920000,324.950000L840.920000,466.850000Z" transform="matrix(1 0 0 1 -24.88000000000000 -23.85000000000000)" fill="rgb(236,9,114)" stroke="none" stroke-width="1"/></g></g></g></svg>